Coordinates
version=1
nRows=11
nColumns=21
inDegrees=yes

Units are S.I. units (second, meters, Newtons, ...)
Angles are in degrees.

endheader
time	Thorax_pitch	Thorax_roll	Thorax_yaw	Thorax_Tx	Thorax_Ty	Thorax_Tz	L_shoulder_flex-ext	L_shoulder_adb-add	L_shoulder_LAR	L_elbow_flex-ext	L_forearm_pron-sup	L_wrist_flex-ext	L_MCP_flex-ext	R_shoulder_flex-ext	R_shoulder_adb-add	R_shoulder_LAR	R_elbow_flex-ext	R_forearm_pron-sup	R_wrist_flex-ext	R_MCP_flex-ext
      0.24100000	      0.00000000	      0.00000000	    -22.10069132	      0.27277147	      0.26338266	      0.09431089	      0.00000000	      0.00000000	      0.00000000	    -67.49998635	     49.99999299	      0.00000000	      0.00000000	     23.03765889	     -5.43446110	     35.75049965	    -61.39428524	    142.03362712	    -75.60933755	     67.16498006
      0.24110000	      0.00000000	      0.00000000	    -22.09842745	      0.27290528	      0.26330186	      0.09433120	      0.00000000	      0.00000000	      0.00000000	    -67.49998635	     49.99999299	      0.00000000	      0.00000000	     23.09236143	     -5.44045419	     35.77333725	    -61.35233438	    142.05061075	    -75.49975912	     67.28698367
      0.24120000	      0.00000000	      0.00000000	    -22.16979969	      0.27302621	      0.26319588	      0.09434378	      0.00000000	      0.00000000	      0.00000000	    -67.49998635	     49.99999299	      0.00000000	      0.00000000	     23.03519972	     -5.40749008	     35.76231136	    -61.41525863	    142.04848752	    -75.30798094	     67.52670382
      0.24130000	      0.00000000	      0.00000000	    -22.22065444	      0.27316614	      0.26310777	      0.09437556	      0.00000000	      0.00000000	      0.00000000	    -67.49998635	     49.99999299	      0.00000000	      0.00000000	     23.01553409	     -5.42117797	     35.80285327	    -61.39339210	    141.98705511	    -75.15095369	     67.76803597
      0.24140000	      0.00000000	      0.00000000	    -22.18246749	      0.27327998	      0.26303108	      0.09439233	      0.00000000	      0.00000000	      0.00000000	    -67.49998635	     49.99999299	      0.00000000	      0.00000000	     23.11013833	     -5.46502766	     35.89905628	    -61.32694787	    141.88604311	    -75.20551526	     67.83469305
      0.24150000	      0.00000000	      0.00000000	    -22.13326064	      0.27341900	      0.26295251	      0.09444377	      0.00000000	      0.00000000	      0.00000000	    -67.49998635	     49.99999299	      0.00000000	      0.00000000	     23.25966368	     -5.53034855	     35.96987177	    -61.17206152	    141.85899847	    -75.31355072	     67.74430017
      0.24160000	      0.00000000	      0.00000000	    -22.12327109	      0.27354687	      0.26286837	      0.09446180	      0.00000000	      0.00000000	      0.00000000	    -67.49998635	     49.99999299	      0.00000000	      0.00000000	     23.34283411	     -5.54632114	     35.99919559	    -61.11068111	    141.90800269	    -75.35322131	     67.69985329
      0.24170000	      0.00000000	      0.00000000	    -22.22092434	      0.27369303	      0.26277126	      0.09449737	      0.00000000	      0.00000000	      0.00000000	    -67.49998635	     49.99999299	      0.00000000	      0.00000000	     23.23665068	     -5.57282040	     36.04091921	    -61.06962666	    141.91256828	    -75.17847632	     67.87300738
      0.24180000	      0.00000000	      0.00000000	    -22.15417825	      0.27380333	      0.26267742	      0.09451105	      0.00000000	      0.00000000	      0.00000000	    -67.49998635	     49.99999299	      0.00000000	      0.00000000	     23.42168681	     -5.57333530	     36.06766213	    -61.03477920	    141.87010523	    -75.22008350	     67.93254538
      0.24190000	      0.00000000	      0.00000000	    -22.20354646	      0.27392895	      0.26259671	      0.09453637	      0.00000000	      0.00000000	      0.00000000	    -67.49998635	     49.99999299	      0.00000000	      0.00000000	     23.35763707	     -5.59595932	     36.15614890	    -61.01611061	    141.78197605	    -75.17963579	     68.09692055
      0.24200000	      0.00000000	      0.00000000	    -22.24102598	      0.27406277	      0.26251183	      0.09454595	      0.00000000	      0.00000000	      0.00000000	    -67.49998635	     49.99999299	      0.00000000	      0.00000000	     23.34959656	     -5.56984435	     36.14901258	    -61.03872468	    141.85063833	    -74.98376005	     68.21055782
